<mxfile host="app.diagrams.net" modified="2023-07-19T20:33:39.498Z" agent="Mozilla/5.0 (Windows NT 10.0; Win64; x64) AppleWebKit/537.36 (KHTML, like Gecko) Chrome/114.0.0.0 Safari/537.36" etag="A--StR3aIFaYpKnx7RDF" version="21.6.3" type="device">
  <diagram name="Seite-1" id="h_JyzlCWQpH53hTyHpey">
    <mxGraphModel dx="1434" dy="699" grid="1" gridSize="10" guides="1" tooltips="1" connect="1" arrows="1" fold="1" page="1" pageScale="1" pageWidth="827" pageHeight="1169" math="0" shadow="0">
      <root>
        <mxCell id="0" />
        <mxCell id="1" parent="0" />
        <mxCell id="_N33Qx6-2ai1wIv8iary-1" value="" style="dashed=0;outlineConnect=0;html=1;align=center;labelPosition=center;verticalLabelPosition=bottom;verticalAlign=top;shape=mxgraph.weblogos.github" vertex="1" parent="1">
          <mxGeometry x="80" y="120" width="75" height="75" as="geometry" />
        </mxCell>
        <mxCell id="_N33Qx6-2ai1wIv8iary-2" value="Toolchain Account" style="points=[[0,0],[0.25,0],[0.5,0],[0.75,0],[1,0],[1,0.25],[1,0.5],[1,0.75],[1,1],[0.75,1],[0.5,1],[0.25,1],[0,1],[0,0.75],[0,0.5],[0,0.25]];outlineConnect=0;gradientColor=none;html=1;whiteSpace=wrap;fontSize=12;fontStyle=0;shape=mxgraph.aws4.group;grIcon=mxgraph.aws4.group_aws_cloud_alt;strokeColor=#232F3E;fillColor=none;verticalAlign=top;align=left;spacingLeft=30;fontColor=#232F3E;dashed=0;labelBackgroundColor=#ffffff;container=1;pointerEvents=0;collapsible=0;recursiveResize=0;" vertex="1" parent="1">
          <mxGeometry x="260" y="80" width="630" height="260" as="geometry" />
        </mxCell>
        <mxCell id="_N33Qx6-2ai1wIv8iary-3" value="Webhook API" style="outlineConnect=0;dashed=0;verticalLabelPosition=bottom;verticalAlign=top;align=center;html=1;shape=mxgraph.aws3.api_gateway;fillColor=#D9A741;gradientColor=none;" vertex="1" parent="_N33Qx6-2ai1wIv8iary-2">
          <mxGeometry x="130" y="37.25" width="76.5" height="93" as="geometry" />
        </mxCell>
        <mxCell id="_N33Qx6-2ai1wIv8iary-4" value="call WebHook URL" style="html=1;shape=mxgraph.infographic.ribbonSimple;notch1=0;notch2=20;align=center;verticalAlign=middle;fontSize=14;fontStyle=0;fillColor=#FFFFFF;whiteSpace=wrap;" vertex="1" parent="_N33Qx6-2ai1wIv8iary-2">
          <mxGeometry x="-70" y="67.5" width="160" height="32.5" as="geometry" />
        </mxCell>
        <mxCell id="_N33Qx6-2ai1wIv8iary-5" value="API Gateway invokes Lambda" style="text;html=1;strokeColor=none;fillColor=none;align=center;verticalAlign=middle;whiteSpace=wrap;rounded=0;" vertex="1" parent="_N33Qx6-2ai1wIv8iary-2">
          <mxGeometry x="240" y="37.5" width="80" height="30" as="geometry" />
        </mxCell>
        <mxCell id="_N33Qx6-2ai1wIv8iary-6" value="AWS Lambda" style="outlineConnect=0;fontColor=#232F3E;gradientColor=#F78E04;gradientDirection=north;fillColor=#D05C17;strokeColor=#ffffff;dashed=0;verticalLabelPosition=bottom;verticalAlign=top;align=center;html=1;fontSize=12;fontStyle=0;aspect=fixed;shape=mxgraph.aws4.resourceIcon;resIcon=mxgraph.aws4.lambda;labelBackgroundColor=#ffffff;spacingTop=6;" vertex="1" parent="_N33Qx6-2ai1wIv8iary-2">
          <mxGeometry x="320" y="52.25" width="78" height="78" as="geometry" />
        </mxCell>
        <mxCell id="_N33Qx6-2ai1wIv8iary-7" value="Feature Pipeine" style="outlineConnect=0;dashed=0;verticalLabelPosition=bottom;verticalAlign=top;align=center;html=1;shape=mxgraph.aws3.codepipeline;fillColor=#759C3E;gradientColor=none;" vertex="1" parent="_N33Qx6-2ai1wIv8iary-2">
          <mxGeometry x="479.9982725615314" y="49.25" width="67.5" height="81" as="geometry" />
        </mxCell>
        <mxCell id="_N33Qx6-2ai1wIv8iary-8" value="" style="endArrow=classic;html=1;rounded=0;" edge="1" parent="_N33Qx6-2ai1wIv8iary-2" source="_N33Qx6-2ai1wIv8iary-3" target="_N33Qx6-2ai1wIv8iary-6">
          <mxGeometry width="50" height="50" relative="1" as="geometry">
            <mxPoint x="130" y="320" as="sourcePoint" />
            <mxPoint x="180" y="270" as="targetPoint" />
          </mxGeometry>
        </mxCell>
        <mxCell id="_N33Qx6-2ai1wIv8iary-11" value="" style="endArrow=classic;html=1;rounded=0;" edge="1" parent="_N33Qx6-2ai1wIv8iary-2" source="_N33Qx6-2ai1wIv8iary-6" target="_N33Qx6-2ai1wIv8iary-7">
          <mxGeometry width="50" height="50" relative="1" as="geometry">
            <mxPoint x="130" y="320" as="sourcePoint" />
            <mxPoint x="180" y="270" as="targetPoint" />
          </mxGeometry>
        </mxCell>
        <mxCell id="_N33Qx6-2ai1wIv8iary-12" value="creates and deletes the Feature Pipelines" style="text;html=1;strokeColor=none;fillColor=none;align=center;verticalAlign=middle;whiteSpace=wrap;rounded=0;" vertex="1" parent="_N33Qx6-2ai1wIv8iary-2">
          <mxGeometry x="390" y="19.25" width="130" height="30" as="geometry" />
        </mxCell>
      </root>
    </mxGraphModel>
  </diagram>
</mxfile>
